<?xml version="1.0" standalone="no"?>
<!DOCTYPE svg PUBLIC "-//W3C//DTD SVG 20010904//EN"
 "http://www.w3.org/TR/2001/REC-SVG-20010904/DTD/svg10.dtd">
<svg version="1.0" xmlns="http://www.w3.org/2000/svg"
 width="919.000000pt" height="919.000000pt" viewBox="0 0 919.000000 919.000000"
 preserveAspectRatio="xMidYMid meet">
<metadata>
Created by potrace 1.11, written by Peter Selinger 2001-2013
</metadata>
<g transform="translate(0.000000,919.000000) scale(0.100000,-0.100000)"
fill="#000000" stroke="none">
<path d="M4328 9185 c-1 -1 -43 -6 -93 -9 -89 -6 -127 -10 -215 -22 -88 -11
-116 -15 -205 -31 -49 -8 -103 -17 -120 -20 -138 -21 -683 -178 -710 -204 -5
-5 -15 -9 -22 -9 -46 0 -492 -213 -684 -326 -195 -115 -509 -333 -604 -421
-11 -10 -36 -31 -55 -47 -154 -126 -412 -386 -555 -561 -22 -26 -52 -62 -66
-79 -263 -317 -575 -870 -714 -1266 -14 -41 -30 -84 -35 -95 -20 -42 -115
-377 -135 -475 -2 -8 -8 -35 -14 -60 -5 -25 -12 -61 -16 -80 -3 -19 -8 -46
-10 -60 -10 -50 -14 -69 -21 -117 -3 -26 -8 -56 -10 -67 -2 -10 -6 -44 -9 -75
-4 -31 -8 -72 -11 -91 -26 -225 -26 -775 1 -955 2 -16 7 -48 9 -70 3 -22 10
-74 16 -115 6 -41 13 -88 15 -105 3 -16 7 -41 10 -55 3 -14 10 -47 15 -75 4
-27 18 -90 30 -140 12 -49 24 -98 25 -108 5 -22 10 -40 84 -270 269 -838 786
-1588 1485 -2152 65 -53 127 -100 137 -105 9 -6 24 -17 33 -25 29 -30 293
-202 416 -272 387 -219 675 -339 1115 -462 73 -21 323 -75 388 -85 20 -3 54
-9 75 -12 20 -4 46 -8 57 -9 30 -3 137 -16 164 -21 167 -26 901 -25 984 1 6 2
38 6 70 9 32 3 86 10 120 16 34 5 80 12 102 16 32 4 196 38 287 59 170 38 504
145 653 209 218 94 440 202 537 263 21 13 40 23 42 23 6 0 159 95 246 153 70
47 349 253 360 266 3 4 21 19 40 35 178 145 525 498 609 620 8 12 18 23 22 26
13 10 138 178 211 285 239 351 418 712 568 1145 19 54 79 259 84 287 2 10 11
45 19 78 9 33 23 96 32 140 39 190 65 372 83 580 15 184 7 743 -13 844 -2 11
-6 48 -10 83 -37 369 -198 942 -365 1303 -57 123 -157 321 -184 363 -14 23
-26 43 -26 46 0 2 -19 35 -41 72 -379 627 -900 1156 -1519 1544 -90 56 -94 59
-115 68 -11 5 -45 24 -75 42 -30 18 -113 61 -185 97 -71 35 -138 68 -147 73
-38 21 -291 121 -403 160 -103 35 -338 106 -385 115 -8 2 -33 8 -55 13 -70 18
-236 50 -350 68 -60 9 -117 18 -126 19 -8 2 -52 6 -96 10 -44 3 -93 9 -109 11
-33 5 -630 14 -636 9z m-354 -1839 c178 -34 339 -99 458 -183 51 -36 183 -162
222 -212 96 -124 180 -306 206 -449 5 -32 12 -68 15 -82 7 -33 7 -238 0 -270
-3 -14 -7 -38 -9 -55 -10 -75 -62 -234 -99 -300 -6 -11 -11 -22 -12 -25 0 -3
-26 -44 -57 -92 -125 -187 -316 -340 -510 -409 -40 -14 -40 -22 4 -69 13 -14
50 -59 82 -100 33 -41 63 -77 66 -80 3 -3 53 -63 110 -135 144 -179 127 -166
164 -120 40 51 129 140 186 187 134 108 397 232 539 253 21 3 53 10 72 15 76
22 322 31 484 17 231 -20 455 -85 660 -191 103 -53 265 -156 265 -167 0 -4
-66 -101 -146 -215 -81 -115 -165 -235 -186 -266 -22 -32 -44 -60 -48 -63 -5
-3 -37 15 -72 41 -176 130 -421 207 -633 199 -130 -5 -163 -10 -254 -41 -215
-72 -326 -207 -320 -390 6 -195 151 -308 644 -504 99 -40 204 -83 233 -96 29
-13 55 -24 57 -24 8 0 174 -83 239 -119 313 -175 497 -389 580 -673 33 -114
38 -146 41 -275 4 -184 -35 -346 -123 -517 -58 -113 -136 -210 -259 -322 -53
-49 -104 -96 -113 -104 -9 -8 -41 -36 -72 -62 l-55 -47 -109 137 c-60 75 -111
139 -114 142 -9 8 -196 244 -203 257 -4 7 32 50 92 110 181 181 231 294 197
452 -18 82 -107 208 -191 271 -98 73 -238 141 -543 264 -522 210 -690 317
-891 566 -29 36 -58 72 -65 81 -7 9 -76 94 -152 190 -76 96 -141 176 -144 179
-3 3 -23 28 -45 55 -22 28 -44 55 -50 61 -5 6 -21 26 -35 44 -14 18 -86 109
-160 201 -74 92 -182 227 -240 299 -58 72 -113 141 -122 152 -10 12 -74 91
-143 177 l-125 157 -133 -2 c-72 -1 -134 -2 -137 -3 -3 0 -5 -303 -5 -672 0
-369 -3 -672 -6 -675 -4 -2 -15 9 -25 24 -15 23 -129 168 -144 182 -3 3 -70
86 -150 185 -79 99 -207 259 -284 355 l-141 174 -1 1296 c0 712 1 1298 3 1302
2 4 367 6 811 5 712 -3 817 -6 896 -21z"/>
<path d="M3018 6688 c-3 -11 -3 -798 1 -820 1 -3 175 -5 389 -3 401 3 433 6
523 49 114 54 197 207 197 361 0 166 -78 309 -201 372 -92 46 -145 51 -548 52
-281 1 -358 -1 -361 -11z"/>
</g>
</svg>
